<svg width="64" height="56" viewBox="0 0 64 56" fill="none" xmlns="http://www.w3.org/2000/svg">
<path fill-rule="evenodd" clip-rule="evenodd" d="M43.9233 15.5777L47.3643 15.5821L47.0517 18.9766L46.403 18.2736L41.9263 22.0158L39.7741 19.6076L33.2621 25.0826L31.8818 20.4448L29.2575 28.8762H14.5278L9.72144 25.395H26.5034L31.8818 8.71765L35.3718 19.3668L40.1229 15.396L42.4537 18.104L44.5975 16.2896L43.9233 15.5777Z" fill="#11287A"/>
<path fill-rule="evenodd" clip-rule="evenodd" d="M14.9077 29.433L19.6967 32.9028H43.8604L48.5875 29.433H14.9088H14.9077ZM20.0601 33.4471L23.3382 35.8219L22.9644 36.9289H40.7365L40.3548 35.7571L43.5017 33.4471H20.061L20.0601 33.4471ZM22.8755 37.4851L21.756 40.9553H41.9337L40.8242 37.4851H22.8756H22.8755ZM21.6675 41.5111L20.5477 44.9812H28.5552L31.8578 42.5563L35.2044 44.9812H43.1309L42.0214 41.5111H21.6672H21.6675ZM20.4592 45.537L19.3361 49.0193H23.437L28.1807 45.537H20.4592H20.4592ZM35.5842 45.537L40.3902 49.0193H44.3316L43.2188 45.537H35.5844H35.5842ZM19.2513 49.5634L18.0637 53.2448L23.1287 49.5634H19.2513ZM40.7545 49.5634L45.5205 53.0166L44.4172 49.5634H40.7544H40.7545Z" fill="#990000"/>
<path d="M34.7258 8.44134e-05L32.7856 3.78289C32.6189 4.10912 32.467 4.32811 32.3445 4.43459C32.2762 4.48751 32.1515 4.52187 31.9487 4.54376L31.9395 4.67244L33.4286 4.77663L33.4378 4.64753C33.2096 4.61735 33.0687 4.57178 33.0012 4.50972C32.9408 4.44787 32.9095 4.38085 32.9144 4.30923C32.9204 4.22337 32.9665 4.08269 33.0577 3.90948L33.4324 3.181L35.2721 3.30926L35.5105 4.0087C35.5881 4.23695 35.6195 4.40421 35.6127 4.50431C35.6072 4.58316 35.574 4.64547 35.4985 4.69775C35.4306 4.74344 35.2991 4.77053 35.1126 4.76458L35.1034 4.89326L36.9722 5.0236L36.9809 4.89492C36.7887 4.86708 36.642 4.80658 36.541 4.70605C36.4406 4.59851 36.3329 4.38942 36.2195 4.05809L34.8478 0.00834967L34.7266 6.10352e-05L34.7258 8.44134e-05ZM29.1113 0.13167L26.9633 0.281515L26.972 0.410195L27.1511 0.397743C27.3301 0.385203 27.4696 0.425641 27.5698 0.519367C27.6397 0.593539 27.6812 0.777738 27.7019 1.07103L27.9154 4.12571C27.9345 4.39732 27.9247 4.57064 27.8801 4.65289C27.8033 4.78763 27.6646 4.86239 27.4643 4.87621L27.2852 4.88867L27.294 5.01735L30.9668 4.76123L31.2775 3.44537L31.1616 3.43209C31.0602 3.73388 30.9537 3.95693 30.8484 4.10081C30.7363 4.24512 30.6068 4.34788 30.4604 4.41546C30.3209 4.47561 30.065 4.52196 29.6999 4.54746L29.3564 4.57154C29.0486 4.593 28.8687 4.59104 28.8097 4.57362C28.751 4.55598 28.7056 4.52349 28.6735 4.47524C28.6329 4.40638 28.6017 4.27201 28.5884 4.07883L28.3799 1.10258C28.3606 0.823738 28.3694 0.643556 28.4003 0.569596C28.4307 0.48841 28.4975 0.418836 28.5947 0.369104C28.6914 0.311934 28.869 0.277776 29.1197 0.260349L29.1106 0.131669L29.1113 0.13167ZM38.6877 0.759714L38.6545 0.884244L38.8277 0.930735C39.001 0.977066 39.1194 1.06098 39.1766 1.1802C39.2255 1.27499 39.205 1.46246 39.1288 1.7464L38.3346 4.71139C38.2659 4.96749 38.2008 5.12816 38.1248 5.18958C38.0083 5.29202 37.853 5.31674 37.6659 5.26679L37.4927 5.22072L37.4594 5.34524L39.6219 5.9239C40.1418 6.0631 40.5359 6.11679 40.8115 6.08661C41.0939 6.05835 41.3289 5.95774 41.5301 5.78899C41.7313 5.62024 41.8585 5.42408 41.9197 5.19539C42.0014 4.89063 41.9641 4.61326 41.798 4.34611C41.6795 4.15101 41.4715 3.98445 41.1712 3.82973C41.4657 3.81209 41.7089 3.73595 41.8952 3.59271C42.0908 3.44479 42.214 3.26268 42.2753 3.03399C42.3478 2.76387 42.3205 2.50431 42.1959 2.24821C42.0715 1.9919 41.8543 1.77767 41.5351 1.61062C41.3283 1.49586 41.0375 1.38857 40.6702 1.29017L38.6839 0.759742L38.6877 0.759714ZM34.5215 1.07851L35.1898 3.0444L33.5578 2.93067L34.5215 1.07852V1.07851ZM23.2411 1.10424L19.875 2.19594L19.9153 2.31881L20.0789 2.26568C20.188 2.23018 20.2997 2.22424 20.4129 2.24783C20.4922 2.25994 20.5486 2.29454 20.5961 2.34704C20.6456 2.40654 20.7077 2.55205 20.783 2.78412L21.7325 5.70512C21.8189 5.97121 21.8492 6.15764 21.8168 6.2435C21.7703 6.3791 21.6515 6.47809 21.4671 6.53781L21.303 6.59095L21.3433 6.71381L23.2823 6.08454L23.242 5.96167L23.0783 6.0148C22.976 6.04796 22.8644 6.05375 22.751 6.03016C22.6627 6.01358 22.5995 5.98189 22.5612 5.93386C22.5095 5.86755 22.447 5.72163 22.3738 5.49635L21.9128 4.07714L22.7323 3.81148C22.8825 3.76281 23.005 3.74551 23.0933 3.76208C23.1885 3.77632 23.2631 3.82009 23.3375 3.88661C23.4049 3.95505 23.4679 4.07818 23.5302 4.24651L23.6528 4.20666L23.1564 2.67828L23.0334 2.71813C23.0815 2.98166 23.08 3.16321 23.0177 3.27393C22.9556 3.38445 22.8319 3.46965 22.6409 3.53171L21.8218 3.79737L21.2453 2.02324L22.2417 1.69988C22.474 1.62464 22.6583 1.58752 22.783 1.59984C22.9125 1.60303 23.0256 1.64928 23.1385 1.71814C23.247 1.79614 23.3641 1.92406 23.4874 2.11789L23.6033 2.08012L23.2411 1.10423L23.2411 1.10424ZM39.9184 1.4085C40.1115 1.40829 40.3183 1.4411 40.5469 1.50231C40.9699 1.61538 41.2644 1.79071 41.4275 2.04235C41.5989 2.28888 41.6485 2.54721 41.5762 2.81734C41.5296 2.99033 41.4386 3.13698 41.3166 3.26025C41.1875 3.3816 41.0331 3.45891 40.848 3.48357C40.6632 3.50823 40.4043 3.47632 40.0717 3.38727C39.9469 3.3539 39.8294 3.32213 39.7203 3.28557C39.6182 3.25072 39.5249 3.21087 39.4453 3.17474L39.9184 1.40852L39.9184 1.4085ZM45.9394 3.46863C45.7253 3.46 45.5079 3.48331 45.2864 3.53878C44.6014 3.7088 44.0794 4.11673 43.7142 4.77536C43.3556 5.42145 43.2582 6.05564 43.4214 6.67898C43.5843 7.30233 43.9563 7.77075 44.5275 8.08699C45.0922 8.39983 45.6902 8.46051 46.3186 8.25925C46.95 8.06777 47.4396 7.65852 47.7907 7.02518C48.1316 6.41055 48.2129 5.79147 48.0437 5.16472C47.8776 4.53181 47.5246 4.074 46.9849 3.77498C46.6437 3.58596 46.2962 3.483 45.9394 3.46864V3.46863ZM39.3614 3.48648C39.4276 3.48924 39.5056 3.50301 39.6115 3.52384C39.7085 3.54976 39.828 3.57439 39.9737 3.6135C40.2925 3.69893 40.5496 3.81946 40.7455 3.97588C40.9364 4.12338 41.0605 4.29765 41.1131 4.48978C41.1656 4.68212 41.1697 4.86143 41.1214 5.04144C41.0491 5.31178 40.8839 5.5124 40.6209 5.63503C40.3559 5.76446 40.0198 5.77105 39.6107 5.6616C39.3544 5.59295 39.1049 5.49639 38.8584 5.36357L39.3614 3.48651V3.48648ZM17.418 3.60974C17.0493 3.60501 16.6982 3.69723 16.3608 3.88412C15.8147 4.18655 15.4477 4.61896 15.2605 5.19789C15.0419 5.86842 15.1116 6.52675 15.4769 7.18538C15.8351 7.83147 16.3217 8.25057 16.937 8.4427C17.5522 8.63504 18.1469 8.568 18.7181 8.25175C19.283 7.93891 19.6512 7.46436 19.8134 6.82507C19.9855 6.18876 19.8975 5.55665 19.5463 4.9231C19.2052 4.30847 18.7229 3.91221 18.1013 3.72348C17.8669 3.6504 17.6392 3.61259 17.418 3.60974ZM46.101 3.78492C46.3355 3.77387 46.5688 3.83268 46.8042 3.96299C47.1996 4.18211 47.4308 4.49057 47.5004 4.89778C47.5916 5.39935 47.4338 6.00878 47.0406 6.71756C46.6754 7.37619 46.2855 7.7832 45.8576 7.94791C45.4397 8.10986 45.0295 8.07957 44.6405 7.86406C44.2764 7.66237 44.058 7.36103 43.9851 6.95999C43.8983 6.43631 44.0429 5.83594 44.4221 5.15223C44.787 4.49382 45.2035 4.06848 45.6773 3.87997C45.8195 3.82339 45.9603 3.79154 46.101 3.78492H46.101ZM17.1564 3.94367C17.3007 3.94948 17.4442 3.98183 17.5875 4.04081C18.0612 4.22932 18.4948 4.68628 18.8881 5.39485C19.2534 6.05327 19.3923 6.59951 19.3055 7.04943C19.2215 7.48958 18.9786 7.82062 18.5894 8.03612C18.2255 8.2376 17.8539 8.2634 17.475 8.1125C16.9845 7.90868 16.5513 7.4679 16.1724 6.78419C15.807 6.12578 15.6668 5.54755 15.7578 5.04619C15.8308 4.64494 16.0491 4.34355 16.4257 4.13506C16.673 3.99811 16.9158 3.93403 17.1564 3.9437L17.1564 3.94367ZM50.2928 5.9162L50.2097 6.01499L50.3468 6.13039C50.4844 6.24558 50.5564 6.37125 50.5632 6.50812C50.5666 6.60461 50.4689 6.76608 50.2749 6.99668L48.3002 9.34768C48.1296 9.55085 48.002 9.66913 47.9126 9.69718C47.7638 9.74075 47.6122 9.69792 47.4582 9.56891L47.3212 9.45352L47.2377 9.55231L48.7991 10.8619L48.8821 10.7631L48.7392 10.6432C48.6017 10.528 48.5351 10.4066 48.5328 10.2642C48.5294 10.1679 48.6272 10.0067 48.8165 9.78144L49.7075 8.72128C49.7302 8.74976 49.7577 8.77304 49.7851 8.796C49.8126 8.81895 49.8345 8.83728 49.8566 8.85577C49.917 8.90657 49.9887 8.96635 50.0867 9.03924L49.8873 11.7751L50.8606 12.5916L50.9436 12.4924C50.7643 12.3045 50.6407 12.1166 50.5843 11.9383C50.5327 11.7544 50.5184 11.4707 50.5407 11.0869L50.6695 9.41614C51.0319 9.59849 51.3542 9.67196 51.6411 9.63158C51.928 9.59141 52.1608 9.4592 52.3501 9.23392C52.5256 9.02543 52.6118 8.78846 52.6101 8.53406C52.6129 8.27435 52.5413 8.03623 52.4058 7.82923C52.2705 7.62201 52.0079 7.35478 51.6174 7.02727L50.2928 5.91606L50.2928 5.9162ZM51.1194 7.04029C51.3229 7.15505 51.4743 7.25388 51.5788 7.34165C51.815 7.53994 51.9423 7.76803 51.9651 8.03072C51.988 8.2934 51.9071 8.53483 51.7133 8.76543C51.5194 8.99602 51.2699 9.11472 50.9694 9.11536C50.6689 9.11621 50.3406 8.97169 49.9941 8.68116C49.9777 8.66735 49.9556 8.6486 49.9335 8.63011C49.906 8.60715 49.8786 8.58426 49.8458 8.55663L51.1176 7.04024L51.1194 7.04029ZM11.4603 7.32463L10.2263 8.47361L10.3143 8.56825L10.4456 8.44579C10.577 8.32359 10.7109 8.26749 10.8477 8.27726C10.9487 8.29087 11.097 8.40754 11.2975 8.62262L12.6088 10.029C12.9517 10.3964 13.1645 10.6883 13.2485 10.9044C13.3219 11.1201 13.319 11.3584 13.2282 11.6292C13.1427 11.895 12.9918 12.1332 12.7609 12.3485C12.5822 12.5147 12.4061 12.6206 12.2217 12.6648C12.0371 12.7192 11.8693 12.7284 11.7183 12.6927C11.5622 12.6516 11.3877 12.5592 11.1999 12.4104C11.0174 12.2567 10.8544 12.114 10.7322 11.9829L9.31823 10.4665C9.13725 10.2722 9.03572 10.1216 9.02913 10.0198C8.99871 9.8715 9.06464 9.73174 9.20649 9.59976L9.34315 9.47233L9.25509 9.3781L7.74812 10.7815L7.8366 10.8762L7.96744 10.7537C8.09866 10.6313 8.22815 10.5699 8.34959 10.5844C8.47102 10.5988 8.62942 10.7059 8.83018 10.921L10.0975 12.28C10.489 12.6998 10.7796 12.9588 10.9739 13.0621C11.2634 13.2043 11.5664 13.2553 11.8882 13.2007C12.2048 13.151 12.5574 12.9502 12.9353 12.598C13.2871 12.2705 13.4965 11.9479 13.5692 11.6155C13.6415 11.2933 13.6265 11.0034 13.5189 10.7409C13.406 10.4831 13.1881 10.1862 12.8601 9.83472L11.5458 8.42863C11.3646 8.23459 11.2732 8.09442 11.2609 8.00771C11.2269 7.82387 11.278 7.66845 11.4146 7.54115L11.5458 7.41915L11.4577 7.325L11.4603 7.32463ZM56.1469 12.1544C55.8974 12.1561 55.6719 12.2301 55.4628 12.3818C55.306 12.4957 55.1862 12.6357 55.1031 12.8023C55.0246 12.9747 54.9785 13.1674 54.9693 13.3868C54.9604 13.6061 54.9841 13.9436 55.0345 14.4033C55.0949 14.8647 55.1209 15.1566 55.1135 15.2684C55.1124 15.4376 55.0784 15.5863 55.0233 15.7059C54.9627 15.8298 54.8911 15.9261 54.7924 15.9977C54.6239 16.1199 54.4283 16.1559 54.1992 16.1094C53.9804 16.0643 53.7772 15.9193 53.6085 15.6872C53.4609 15.484 53.368 15.2591 53.3327 15.0276C53.2991 14.7862 53.3265 14.5799 53.3967 14.3959C53.4769 14.2133 53.6296 13.9963 53.8744 13.7475L53.7988 13.6433L52.4808 14.6001L52.5568 14.7047C52.6525 14.653 52.7273 14.6341 52.7732 14.6362C52.8232 14.6441 52.8702 14.6718 52.9041 14.7184C52.9377 14.7647 52.9876 14.9061 53.0644 15.1339C53.1416 15.3617 53.1947 15.5086 53.2256 15.5752C53.2798 15.6865 53.3502 15.7953 53.4303 15.9056C53.6877 16.2594 54.0031 16.4735 54.3766 16.5481C54.7558 16.6185 55.09 16.5531 55.3801 16.3422C55.5311 16.2326 55.6524 16.0825 55.7411 15.9118C55.8298 15.7411 55.8802 15.554 55.8819 15.3489C55.8893 15.1396 55.863 14.7859 55.793 14.2871C55.7105 13.6733 55.6935 13.26 55.7544 13.0385C55.7882 12.8897 55.8692 12.7692 55.9853 12.6848C56.1361 12.5754 56.3219 12.5377 56.5307 12.5811C56.7498 12.6259 56.9256 12.7461 57.0649 12.9376C57.1914 13.1117 57.2734 13.3095 57.2987 13.5395C57.3298 13.7652 57.3004 13.9811 57.2127 14.1779C57.1251 14.3747 56.9685 14.586 56.7384 14.8064L56.8144 14.9106L58.1436 13.9455L58.0676 13.8413C57.9638 13.8812 57.8887 13.9002 57.8387 13.8923C57.7843 13.8785 57.7371 13.8502 57.7033 13.8039C57.6697 13.7574 57.6381 13.6652 57.6086 13.5271C57.5484 13.2248 57.4387 12.9768 57.2867 12.7678C57.0506 12.4429 56.7579 12.2475 56.4044 12.1763C56.3157 12.161 56.23 12.1538 56.1469 12.1543L56.1469 12.1544ZM5.29924 14.0912L5.23278 14.1933L7.60322 17.7232C7.80802 18.0269 7.9262 18.266 7.96002 18.4247C7.97299 18.5099 7.94256 18.6358 7.86323 18.8236L7.97165 18.8942L8.78454 17.6427L8.67613 17.5725C8.53917 17.7572 8.4306 17.8579 8.3434 17.8868C8.26025 17.9097 8.18676 17.9047 8.12658 17.8656C8.05449 17.8188 7.9534 17.7107 7.84579 17.5468L7.38929 16.866L8.39368 15.3198L9.12182 15.4501C9.35917 15.4929 9.52109 15.5466 9.60531 15.6012C9.67124 15.6442 9.70998 15.7033 9.71913 15.7947C9.72614 15.8763 9.68585 16.0043 9.59036 16.1645L9.69861 16.2349L10.7184 14.6649L10.6101 14.5948C10.4927 14.7493 10.3687 14.8483 10.2317 14.8878C10.089 14.9233 9.85392 14.9165 9.50897 14.855L5.29913 14.0913L5.29924 14.0912ZM6.07766 14.8948L8.12214 15.2638L7.23157 16.6353L6.07766 14.8948V14.8948ZM59.1456 15.6636L58.1363 16.1347L58.2002 16.2551C58.3972 16.1667 58.5729 16.1301 58.7211 16.1488C58.8757 16.1643 59.0021 16.219 59.0974 16.3066C59.1665 16.3754 59.2597 16.5045 59.3641 16.7009L59.6304 17.2011L56.4233 18.9046C56.1889 19.0292 56.0266 19.0909 55.9398 19.0802C55.7913 19.0615 55.6672 18.9648 55.573 18.7876L55.4953 18.6419L55.3815 18.7025L56.3248 20.4758L56.4386 20.4152L56.3614 20.2695C56.2774 20.1111 56.2573 19.9672 56.3024 19.8378C56.3388 19.7536 56.4807 19.6374 56.7406 19.4995L59.9473 17.7963L60.2605 18.3854C60.3549 18.5626 60.3971 18.719 60.3975 18.8569C60.3941 18.9887 60.3525 19.1245 60.2721 19.2484C60.2162 19.3268 60.1066 19.4257 59.9456 19.5356L60.0096 19.656L60.9683 19.0898L59.1456 15.6636L59.1456 15.6636ZM3.10238 18.0056L1.7304 21.3978L1.85002 21.4464L1.91191 21.2932C1.98465 21.1136 2.07839 20.9968 2.19728 20.952C2.28532 20.9256 2.46943 20.9691 2.74891 21.0819L5.61083 22.238C5.82371 22.324 5.96439 22.3963 6.02288 22.443C6.0854 22.4991 6.11339 22.5646 6.12382 22.6539C6.13275 22.7659 6.1215 22.8697 6.07854 22.976L6.01665 23.1292L6.13628 23.1777L7.50826 19.7856L6.55664 18.9599L6.50264 19.0932C6.71893 19.3429 6.86514 19.5565 6.9417 19.7499C7.00763 19.8927 7.0313 20.026 7.01896 20.1525C7.00663 20.2789 6.95131 20.4734 6.85157 20.7195L6.55042 21.4642C6.50215 21.5839 6.45361 21.665 6.41086 21.6942C6.36556 21.7301 6.32143 21.7435 6.27337 21.7473C6.22531 21.7511 6.10281 21.7095 5.90991 21.6315L4.45237 21.0429L4.84532 20.0716C4.91784 19.8922 5.00099 19.7633 5.07586 19.693C5.15752 19.6254 5.24407 19.583 5.33338 19.5726C5.40399 19.5703 5.55737 19.5934 5.78365 19.6461L5.83267 19.527L4.29494 18.9056L4.24676 19.0255C4.4941 19.1409 4.64694 19.2797 4.70118 19.4332C4.74201 19.5426 4.71182 19.7317 4.61229 19.9778L4.21976 20.9487L2.47602 20.2447L2.96533 19.0338C3.05423 18.8143 3.12947 18.6663 3.19753 18.5934C3.28728 18.5056 3.38607 18.4527 3.4941 18.4344C3.6049 18.4096 3.78353 18.4275 4.03533 18.4751L4.08642 18.3489L3.10239 18.0056L3.10238 18.0056ZM56.8232 21.3931L56.7011 21.4355L57.1871 22.8456L57.3092 22.8036C57.2482 22.582 57.2354 22.4348 57.2665 22.3483C57.2996 22.2686 57.349 22.2135 57.4168 22.1901C57.4983 22.1621 57.6455 22.1495 57.8409 22.1656L58.6588 22.2254L59.259 23.968L58.7082 24.4615C58.5283 24.622 58.3863 24.7161 58.2912 24.7488C58.2166 24.7745 58.1462 24.7684 58.0686 24.7193C58.0001 24.6747 57.9237 24.5644 57.8563 24.3906L57.7342 24.4325L58.3439 26.2024L58.4661 26.1605C58.4167 25.9726 58.415 25.8141 58.4682 25.6819C58.5282 25.5476 58.6785 25.3667 58.9396 25.1327L62.134 22.2889L62.0945 22.1735L57.8519 21.8663C57.4863 21.8404 57.2248 21.7864 57.0789 21.7152C57.0036 21.6729 56.923 21.5712 56.8234 21.3931L56.8232 21.3931ZM58.9379 22.2428L61.0206 22.4064L59.4709 23.7891L58.9379 22.2428L58.9379 22.2428ZM5.85933 23.5853C5.77299 23.8303 5.66184 24.0253 5.52829 24.1564C5.38771 24.2859 5.14131 24.4276 4.78891 24.5819L3.24041 25.2253C3.23849 24.82 3.15769 24.4995 2.9916 24.2623C2.82529 24.0251 2.60186 23.8778 2.31497 23.8115C2.04934 23.7501 1.79917 23.7807 1.5731 23.8978C1.34002 24.0134 1.16041 24.1857 1.03728 24.4001C0.913927 24.6148 0.794682 24.97 0.680052 25.4661L0.290438 27.1501L0.416297 27.1796L0.456588 27.0048C0.496783 26.8301 0.576747 26.7086 0.695843 26.6404C0.780061 26.5936 0.968297 26.6074 1.262 26.6752L4.25514 27.3664C4.51396 27.4261 4.67665 27.486 4.74237 27.5528C4.84892 27.6656 4.87967 27.8198 4.83458 28.0156L4.79429 28.1903L4.92015 28.2194L5.37914 26.2344L5.25286 26.2054L5.21133 26.3872C5.17092 26.5617 5.09257 26.6764 4.96667 26.7429C4.88203 26.7894 4.69405 26.7756 4.40715 26.7093L3.0576 26.3975C3.0727 26.3644 3.08067 26.3295 3.08875 26.2946C3.09683 26.2595 3.10356 26.2317 3.10994 26.2037C3.1278 26.127 3.1485 26.0359 3.16892 25.9156L5.69886 24.8509L5.98465 23.6139L5.85921 23.5853L5.85933 23.5853ZM1.97361 24.5603C2.04199 24.5642 2.11244 24.5744 2.18586 24.5914C2.47956 24.6595 2.69853 24.8278 2.83592 25.0949C2.97309 25.3623 2.99345 25.7208 2.89158 26.1609C2.8869 26.182 2.8801 26.2099 2.87372 26.2377C2.86563 26.2728 2.85775 26.3075 2.84796 26.3494L0.917713 25.9035C0.927496 25.6704 0.946689 25.4905 0.977527 25.3577C1.04707 25.0572 1.19305 24.8406 1.41699 24.701C1.58495 24.5961 1.76843 24.5487 1.9736 24.5603L1.97361 24.5603ZM62.8573 25.5088L61.7478 25.6068L61.7669 25.7417C61.9821 25.726 62.1596 25.7519 62.2923 25.8201C62.4323 25.8873 62.5327 25.9818 62.5923 26.0966C62.6335 26.1848 62.6767 26.338 62.7077 26.5582L62.7867 27.1194L59.1908 27.6246C58.9279 27.6615 58.7542 27.6643 58.6762 27.6246C58.5434 27.5563 58.4598 27.4233 58.4319 27.2244L58.4087 27.0609L58.2807 27.0787L58.5603 29.0674L58.6886 29.0496L58.6658 28.886C58.6407 28.7084 58.6714 28.5664 58.758 28.4602C58.8211 28.3934 58.9937 28.3326 59.2851 28.2916L62.8814 27.7864L62.974 28.4469C63.0021 28.6458 62.989 28.807 62.942 28.9367C62.8939 29.0593 62.8083 29.1726 62.6903 29.2617C62.611 29.3163 62.4742 29.3718 62.2853 29.4203L62.304 29.5552L63.3985 29.3505L62.8573 25.5089L62.8573 25.5088ZM0.176531 28.5905L0.117963 30.2749L0.24673 30.2795L0.25296 30.0998C0.259128 29.9208 0.314293 29.7864 0.417864 29.6967C0.498892 29.6351 0.686574 29.6126 0.980699 29.6228L2.90263 29.6897C3.40454 29.7071 3.76185 29.7626 3.97388 29.8561C4.17869 29.9566 4.34474 30.1278 4.47234 30.3833C4.60016 30.6317 4.66243 30.9064 4.65137 31.2218C4.64286 31.4656 4.59325 31.6644 4.49436 31.8262C4.40206 31.9951 4.28997 32.1204 4.15791 32.2018C4.01861 32.2832 3.82993 32.3413 3.59216 32.3687C3.3544 32.3893 3.13841 32.4031 2.95912 32.3969L0.886405 32.3251C0.621203 32.3158 0.442921 32.2806 0.366359 32.2135C0.240032 32.1302 0.187385 31.9851 0.193978 31.7917L0.200624 31.6053L0.0718575 31.6008L0 33.6602L0.128766 33.6639L0.134997 33.4846C0.141164 33.3054 0.189033 33.1707 0.284947 33.0952C0.381075 33.0198 0.569247 32.9833 0.863159 32.9935L2.72072 33.0583C3.29451 33.0783 3.68278 33.0559 3.89333 32.9915C4.19851 32.8873 4.44904 32.7096 4.63768 32.4436C4.82632 32.1847 4.93321 31.7938 4.95128 31.2776C4.96808 30.7975 4.88747 30.4215 4.70371 30.1352C4.52677 29.8566 4.31089 29.6625 4.04909 29.5528C3.78708 29.4504 3.42317 29.3949 2.94254 29.3781L1.0206 29.3113C0.755186 29.3019 0.590876 29.2674 0.520907 29.215C0.366507 29.1089 0.292923 28.963 0.299516 28.7766L0.305726 28.5981L0.176544 28.5938L0.176531 28.5905ZM58.6825 30.7385L58.6468 32.775L58.7755 32.7771L58.7789 32.6052C58.781 32.4905 58.8115 32.3834 58.8707 32.284C58.9151 32.213 58.9663 32.1637 59.0239 32.1432C59.1035 32.1158 59.2616 32.0971 59.4983 32.1013L62.5691 32.1557C62.8558 32.1606 63.0345 32.1996 63.1053 32.2582C63.2185 32.3462 63.2736 32.4909 63.2702 32.6845L63.2669 32.8564L63.3961 32.8589L63.4318 30.8224L63.3026 30.8199L63.2997 30.9851C63.2976 31.0999 63.267 31.2066 63.2079 31.306C63.1707 31.3772 63.1197 31.4263 63.0546 31.4467C62.9825 31.4814 62.8242 31.4931 62.5803 31.4887L59.5095 31.4343C59.2299 31.4294 59.0441 31.3977 58.9733 31.3392C58.8601 31.2512 58.8052 31.1065 58.8088 30.9059L58.8117 30.7411L58.6825 30.7386V30.7385ZM58.4561 33.7628L58.4407 33.8911C58.5458 33.9185 58.6136 33.9559 58.6455 33.9886C58.677 34.0286 58.692 34.0809 58.685 34.1381C58.6782 34.1948 58.6175 34.3318 58.5184 34.5507C58.4193 34.7696 58.358 34.9141 58.3352 34.9836C58.2991 35.102 58.276 35.2289 58.2592 35.3642C58.2058 35.7984 58.2904 36.1702 58.5126 36.4792C58.7419 36.7893 59.0305 36.9692 59.3866 37.013C59.5718 37.0359 59.7632 37.0091 59.9448 36.9445C60.1262 36.8803 60.2908 36.7776 60.432 36.6286C60.5805 36.4807 60.8024 36.2045 61.0917 35.7922C61.4504 35.287 61.7205 34.9733 61.9162 34.8528C62.0425 34.7672 62.1837 34.7341 62.3262 34.7516C62.5114 34.7745 62.6726 34.8739 62.796 35.0479C62.9253 35.2301 62.9721 35.4378 62.943 35.6726C62.9168 35.8862 62.8416 36.0867 62.7033 36.272C62.5719 36.4582 62.4029 36.5961 62.2045 36.6801C62.0062 36.7642 61.7471 36.812 61.4285 36.8162L61.4128 36.9445L63.0439 37.1446L63.0593 37.0167C62.9559 36.9751 62.8881 36.9379 62.857 36.898C62.8266 36.851 62.8114 36.7985 62.8184 36.7415C62.8256 36.6843 62.8653 36.5955 62.938 36.4746C63.1005 36.2125 63.1898 35.9559 63.2213 35.6996C63.2702 35.3011 63.1897 34.9587 62.98 34.6656C62.7622 34.3787 62.493 34.2156 62.1513 34.1737C61.959 34.1501 61.7755 34.1709 61.6013 34.2364C61.4261 34.3089 61.2604 34.4183 61.1041 34.5726C60.9478 34.7269 60.7349 34.9896 60.4578 35.3601C60.1869 35.7388 60.0067 35.9695 59.9249 36.0462C59.8085 36.1691 59.6824 36.2549 59.5606 36.3048C59.4317 36.3541 59.3132 36.3757 59.1921 36.3609C58.9856 36.3354 58.8184 36.2281 58.6825 36.0379C58.553 35.8556 58.5037 35.6112 58.5388 35.3265C58.5696 35.0774 58.6553 34.8497 58.7876 34.6565C58.9277 34.4567 59.0887 34.3246 59.2657 34.2381C59.449 34.1594 59.7083 34.1047 60.0573 34.0899L60.0731 33.9616L58.4561 33.7628L58.4561 33.7628ZM3.84629 34.8371C3.78805 34.8381 3.72974 34.8438 3.67142 34.8541C3.36028 34.9089 3.12466 35.0598 2.95239 35.3232C2.82543 35.5129 2.76226 35.7714 2.74886 36.1089C2.60828 35.8494 2.43662 35.6615 2.22756 35.5527C2.01042 35.4379 1.79294 35.4033 1.55964 35.4444C1.28402 35.4928 1.05999 35.6272 0.880498 35.8483C0.701003 36.0693 0.598431 36.3568 0.581843 36.7166C0.565254 36.9525 0.590054 37.2612 0.656195 37.6356L1.01299 39.6555L1.1401 39.6331L1.10936 39.4567C1.0781 39.2801 1.10365 39.1369 1.18787 39.0349C1.25316 38.9506 1.43197 38.89 1.72163 38.839L4.74689 38.306C5.00826 38.2599 5.18159 38.2513 5.26942 38.294C5.41148 38.3563 5.5004 38.4865 5.534 38.6771L5.56474 38.8535L5.69226 38.8311L5.30348 36.6278C5.2099 36.0978 5.0921 35.7181 4.94834 35.4813C4.80329 35.2371 4.61249 35.0668 4.37429 34.9558C4.19581 34.8726 4.02107 34.834 3.84636 34.8371L3.84629 34.8371ZM4.071 35.627C4.26852 35.6335 4.45204 35.7054 4.61888 35.8453C4.84835 36.0307 4.99597 36.3322 5.06955 36.749C5.1157 37.0104 5.13348 37.2767 5.11732 37.5564L3.20202 37.8938C3.17671 37.8326 3.1559 37.7562 3.13016 37.6514C3.11272 37.5526 3.08446 37.4334 3.0583 37.2853C3.00109 36.9601 3.00167 36.6763 3.06079 36.4327C3.11396 36.1974 3.21985 36.0113 3.37191 35.8827C3.52418 35.7539 3.68494 35.6747 3.86869 35.6423C3.9376 35.6302 4.00514 35.6248 4.07098 35.627L4.071 35.627ZM1.79052 36.1558C1.92083 36.1514 2.04751 36.1741 2.17018 36.2181C2.335 36.2838 2.47022 36.3913 2.57102 36.5481C2.67162 36.7052 2.75176 36.9532 2.81153 37.2924C2.83408 37.4193 2.85505 37.5394 2.86802 37.6535C2.87951 37.7608 2.88296 37.8621 2.88381 37.9495L1.0815 38.267C0.999621 38.0921 0.942272 37.8908 0.901227 37.6576C0.825303 37.2269 0.859486 36.8855 1.01878 36.6319C1.16977 36.372 1.38325 36.2182 1.65888 36.1695C1.70306 36.1618 1.74711 36.1573 1.79055 36.1558L1.79052 36.1558ZM57.7147 38.7211L57.0937 40.6313L57.2166 40.6716L57.2677 40.5147C57.323 40.3443 57.4133 40.2298 57.5377 40.1723C57.6236 40.1397 57.8053 40.1612 58.0852 40.2519L61.5398 41.3727L61.3338 42.007C61.2717 42.198 61.1891 42.3372 61.09 42.4333C60.993 42.5223 60.8666 42.5868 60.7215 42.6151C60.6262 42.6293 60.4782 42.6195 60.2875 42.5802L60.2455 42.7097L61.3192 43.0053L62.5184 39.3143L61.4775 38.9162L61.4356 39.0461C61.6361 39.1261 61.7842 39.227 61.8738 39.3467C61.9701 39.4683 62.0187 39.5973 62.0221 39.7265C62.0206 39.824 61.9921 39.9808 61.9236 40.1922L61.7487 40.731L58.2937 39.6107C58.0408 39.5286 57.8837 39.4548 57.8309 39.3849C57.7416 39.2656 57.7244 39.1092 57.7865 38.9183L57.8372 38.761L57.7146 38.7211L57.7147 38.7211ZM6.57563 41.4882C6.52536 41.4873 6.47515 41.4971 6.42485 41.5164C6.32426 41.5549 6.25671 41.6192 6.20886 41.7144C6.16335 41.8166 6.16331 41.9161 6.2018 42.0166C6.24051 42.1171 6.30746 42.1915 6.40699 42.2304C6.50227 42.2784 6.60236 42.2782 6.70274 42.2395C6.80312 42.2009 6.87737 42.1338 6.92289 42.032C6.96415 41.9391 6.97115 41.837 6.93245 41.7364C6.89395 41.6359 6.82019 41.5641 6.72725 41.5231C6.67621 41.5003 6.62591 41.4891 6.57564 41.4882L6.57563 41.4882ZM56.496 42.2711L55.6665 44.1315L55.7845 44.1842L55.8547 44.0269C55.9013 43.9219 55.9713 43.8355 56.0645 43.7671C56.1329 43.7193 56.1995 43.6937 56.2605 43.6973C56.3445 43.7033 56.4972 43.7478 56.7137 43.8443L59.5191 45.0933C59.7813 45.2102 59.9305 45.316 59.9727 45.3976C60.0424 45.5228 60.0368 45.6774 59.9581 45.8542L59.8879 46.0111L60.0059 46.0638L60.8354 44.2033L60.717 44.1506L60.6501 44.3013C60.6035 44.4061 60.5331 44.4929 60.4399 44.5611C60.3781 44.6122 60.3115 44.6375 60.2439 44.6309C60.1637 44.6345 60.0136 44.5836 59.7907 44.4844L56.9854 43.2349C56.7297 43.1212 56.571 43.0193 56.5288 42.9377C56.4591 42.8123 56.465 42.6577 56.5467 42.4745L56.614 42.3238L56.496 42.2711H56.496ZM7.01586 43.7625C6.799 43.7565 6.59273 43.8067 6.39654 43.9153C6.23342 44.0058 6.09463 44.1398 5.98574 44.2984C5.87685 44.4572 5.80422 44.6367 5.77764 44.8401C5.74467 45.0471 5.7276 45.4007 5.7361 45.9044C5.74312 46.5237 5.70907 46.9361 5.62187 47.1484C5.57019 47.2919 5.47549 47.4019 5.3498 47.4714C5.1869 47.5617 4.99773 47.5763 4.79569 47.5079C4.58387 47.4367 4.4237 47.2957 4.30886 47.0886C4.20465 46.9006 4.14763 46.6945 4.1506 46.4631C4.14741 46.2353 4.20304 46.0243 4.31385 45.84C4.42465 45.6556 4.6061 45.4647 4.8613 45.2743L4.79858 45.1614L3.36139 45.9575L3.42453 46.0696C3.53257 46.0424 3.60927 46.0334 3.65798 46.0472C3.7103 46.0674 3.75349 46.1008 3.78135 46.1509C3.80921 46.2011 3.82924 46.2967 3.84157 46.4374C3.86433 46.7445 3.94269 47.0039 4.06796 47.2298C4.26277 47.5811 4.52931 47.8109 4.87129 47.9246C5.21624 48.0288 5.53008 48.0027 5.83122 47.8358C6.00072 47.7419 6.13702 47.617 6.23953 47.4618C6.33885 47.3005 6.40775 47.1149 6.44348 46.8981C6.47921 46.6818 6.49671 46.3436 6.50288 45.8811C6.49905 45.4159 6.50924 45.1237 6.53029 45.0136C6.5522 44.8457 6.60407 44.7022 6.67318 44.5902C6.74847 44.475 6.83143 44.3875 6.93819 44.3287C7.12003 44.2277 7.31887 44.2159 7.54048 44.2901C7.7523 44.3613 7.93598 44.5301 8.07507 44.7811C8.19672 45.0005 8.26163 45.2352 8.26822 45.4694C8.27226 45.7131 8.21971 45.9142 8.12741 46.0883C8.02532 46.2596 7.84762 46.4566 7.57412 46.6735L7.63684 46.7865L9.06117 45.9974L8.99886 45.8844C8.89763 45.924 8.82111 45.9338 8.77581 45.926C8.72711 45.9121 8.68363 45.8786 8.65577 45.8284C8.62791 45.7783 8.59606 45.6316 8.54735 45.3963C8.49887 45.1608 8.46355 45.0084 8.44143 44.9389C8.40103 44.8218 8.34475 44.7057 8.27861 44.5865C8.06636 44.2039 7.77949 43.9529 7.41795 43.8335C7.27998 43.7899 7.14598 43.7661 7.01587 43.7625L7.01586 43.7625ZM55.8155 45.5781C55.7484 45.578 55.681 45.5804 55.6132 45.5856C54.892 45.6428 54.3189 46.0043 53.9044 46.6674C53.6725 47.0384 53.5497 47.4103 53.5529 47.7844C53.5497 48.1546 53.6636 48.5556 53.8973 48.9807L54.0148 48.9271C53.8285 48.4808 53.7463 48.1251 53.7623 47.8558C53.7723 47.5827 53.8621 47.3173 54.0256 47.0559C54.2119 46.7579 54.4523 46.5357 54.7405 46.3859C55.0348 46.2397 55.3424 46.1947 55.6863 46.2402C56.0266 46.2919 56.377 46.4347 56.7422 46.6628C57.1807 46.9365 57.5139 47.2292 57.7362 47.537C57.9584 47.8449 58.0653 48.1485 58.0685 48.4548C58.0693 48.7512 57.9837 49.0363 57.8163 49.3041C57.6185 49.6203 57.3561 49.8373 57.035 49.9582C56.7115 50.0694 56.3092 50.0636 55.8192 49.9267L55.7619 50.018L57.1891 50.7818L57.2535 50.6784C57.1776 50.597 57.1214 50.5114 57.1031 50.4323C57.0931 50.3668 57.0955 50.3091 57.1297 50.2542C57.1525 50.2177 57.2146 50.1718 57.3067 50.1193C57.6316 49.9246 57.8777 49.6808 58.0602 49.3887C58.2922 49.0177 58.4177 48.6139 58.4328 48.1837C58.4417 47.7495 58.3358 47.3364 58.1113 46.9509C57.8905 46.5594 57.5763 46.2364 57.1746 45.9854C56.7377 45.7127 56.2852 45.5792 55.8155 45.5782L55.8155 45.5781ZM9.74656 47.1767C9.66872 47.1782 9.59743 47.2029 9.5314 47.2493C9.44315 47.311 9.3928 47.3899 9.36941 47.4938C9.35005 47.6037 9.37439 47.701 9.43628 47.789C9.49796 47.8772 9.58063 47.9329 9.68675 47.9463C9.79074 47.9697 9.88822 47.9459 9.97626 47.884C10.0645 47.8224 10.1201 47.7397 10.1395 47.6296C10.1572 47.5299 10.1389 47.4288 10.0772 47.3406C10.0153 47.2524 9.92689 47.2005 9.82673 47.1829C9.79924 47.1781 9.77251 47.1762 9.74656 47.1767L9.74656 47.1767ZM52.0363 49.067L51.9483 49.1613C52.0172 49.2452 52.0505 49.315 52.0571 49.3605C52.0588 49.4115 52.0401 49.4627 52.001 49.5045C51.9619 49.5466 51.8325 49.6221 51.6234 49.7411C51.4144 49.8604 51.2799 49.9408 51.2205 49.9836C51.1216 50.0579 51.0285 50.1477 50.9356 50.2476C50.637 50.5676 50.4868 50.9179 50.4849 51.2986C50.4885 51.6841 50.6163 51.9994 50.8787 52.2438C51.015 52.3709 51.1861 52.4612 51.3709 52.5156C51.5558 52.5703 51.7492 52.5836 51.9508 52.546C52.158 52.5132 52.5 52.4201 52.9768 52.2562C53.5638 52.0579 53.9669 51.963 54.1959 51.9802C54.3484 51.9849 54.4823 52.041 54.5872 52.1387C54.7239 52.266 54.7962 52.4409 54.7936 52.6543C54.7911 52.8777 54.7069 53.0734 54.5452 53.2466C54.3985 53.4039 54.22 53.5217 53.999 53.5903C53.7833 53.6641 53.5648 53.677 53.3551 53.6285C53.1452 53.5799 52.9079 53.4668 52.6474 53.2832L52.5593 53.3774L53.7614 54.4973L53.8494 54.4023C53.7905 54.3079 53.7575 54.2382 53.7556 54.1876C53.7588 54.1315 53.7773 54.0801 53.8166 54.0382C53.8555 53.9959 53.9405 53.9476 54.0704 53.8921C54.3558 53.7754 54.5787 53.6205 54.755 53.4313C55.0289 53.1378 55.1645 52.8132 55.167 52.453C55.1596 52.0929 55.0379 51.8026 54.7857 51.568C54.6441 51.436 54.4834 51.3452 54.3039 51.2957C54.1195 51.2515 53.921 51.2432 53.7037 51.2762C53.4863 51.3091 53.1597 51.3971 52.7176 51.5343C52.2761 51.682 51.9943 51.7631 51.8831 51.7772C51.7166 51.8084 51.5638 51.8032 51.4357 51.7722C51.3024 51.7363 51.194 51.6845 51.1047 51.6012C50.9524 51.4594 50.8801 51.2742 50.882 51.0404C50.8844 50.8172 50.9877 50.5904 51.1836 50.3804C51.3548 50.197 51.5585 50.0628 51.7793 49.984C52.01 49.9049 52.2177 49.8929 52.4119 49.9267C52.6062 49.9705 52.8493 50.0787 53.1404 50.2712L53.2285 50.177L52.0364 49.067L52.0363 49.067ZM11.1119 49.5726C10.9663 49.5808 10.8279 49.6114 10.6965 49.6652C10.4386 49.778 10.1415 49.9962 9.78978 50.3239L8.38249 51.6344C8.18811 51.8153 8.04806 51.9068 7.96129 51.9191C7.77733 51.9531 7.6218 51.9018 7.49441 51.7651L7.37229 51.634L7.27759 51.7224L8.42776 52.9556L8.52205 52.8672L8.39993 52.7365C8.27764 52.6051 8.22129 52.4713 8.23129 52.3346C8.2449 52.2337 8.36207 52.0855 8.5773 51.8851L9.98417 50.5742C10.3517 50.2318 10.6435 50.0193 10.8598 49.9354C11.0756 49.8618 11.3145 49.865 11.5854 49.9557C11.8517 50.0412 12.0899 50.1917 12.3053 50.4227C12.4716 50.601 12.5771 50.7775 12.6214 50.9615C12.6758 51.1462 12.6854 51.3135 12.6496 51.4646C12.6086 51.6206 12.5158 51.795 12.3672 51.9827C12.2134 52.165 12.0706 52.3276 11.9393 52.45L10.422 53.863C10.2276 54.0439 10.0769 54.1453 9.97503 54.1519C9.82637 54.1823 9.68673 54.1162 9.55466 53.9747L9.42714 53.8381L9.33285 53.9261L10.7372 55.4317L10.8315 55.3437L10.7094 55.2129C10.5869 55.0818 10.5255 54.9528 10.5399 54.8315C10.5542 54.7101 10.6614 54.5512 10.8768 54.3508L12.2367 53.0843C12.6568 52.6931 12.9161 52.4027 13.0193 52.2085C13.1616 51.919 13.2127 51.6162 13.158 51.2944C13.1083 50.9782 12.9071 50.626 12.5549 50.2484C12.227 49.8969 11.9041 49.6876 11.5717 49.6149C11.4105 49.5788 11.2576 49.5644 11.1119 49.5726L11.1119 49.5726Z" fill="#0D2A54"/>
</svg>
